<svg id="main" xmlns="http://www.w3.org/2000/svg" xmlns:xlink="http://www.w3.org/1999/xlink" width="117.5" height="131.1" viewBox="0 0 117.5 131.1"><defs><style>.cls-1{fill:#f7b334;}.cls-2{fill:url(#linear-gradient);}.cls-3{fill:#fff;}</style><linearGradient id="linear-gradient" x1="2.04" y1="-527.71" x2="115.46" y2="-593.19" gradientTransform="translate(0 626)" gradientUnits="userSpaceOnUse"><stop offset="0" stop-color="#eb2227" stop-opacity="0"/><stop offset="0.19" stop-color="#ea2927" stop-opacity="0.19"/><stop offset="0.4" stop-color="#e93a27" stop-opacity="0.4"/><stop offset="0.6" stop-color="#e65027" stop-opacity="0.6"/><stop offset="0.81" stop-color="#e46827" stop-opacity="0.81"/><stop offset="1" stop-color="#e07f26"/></linearGradient></defs><title>Artboard 24</title><path class="cls-1" d="M58.7,131.1A15.12,15.12,0,0,1,51,129L7.7,104A15.49,15.49,0,0,1,0,90.6V40.5A15.7,15.7,0,0,1,7.7,27.1L51,2.1a15.35,15.35,0,0,1,15.5,0l43.3,25a15.49,15.49,0,0,1,7.7,13.4V90.6a15.7,15.7,0,0,1-7.7,13.4L66.5,129A15.75,15.75,0,0,1,58.7,131.1Z"/><path class="cls-2" d="M58.7,131.1A15.12,15.12,0,0,1,51,129L7.7,104A15.49,15.49,0,0,1,0,90.6V40.5A15.7,15.7,0,0,1,7.7,27.1L51,2.1a15.35,15.35,0,0,1,15.5,0l43.3,25a15.49,15.49,0,0,1,7.7,13.4V90.6a15.7,15.7,0,0,1-7.7,13.4L66.5,129A15.75,15.75,0,0,1,58.7,131.1Z"/><path class="cls-3" d="M55.1,50.1H42.3c-4.7,0-7.8-3.6-7.8-9.1V35.3h1.6V41c0,3.6,1.6,7.5,6.2,7.5H55.1v1.6Z"/><path class="cls-3" d="M75.9,50.1H63.5V48.5H75.9c4.6,0,6.2-4.1,6.2-7.5V35.3h1.6V41C83.7,46.4,80.6,50.1,75.9,50.1Z"/><path class="cls-3" d="M79.9,66.1H38.3a3.9,3.9,0,0,1-3.9-3.9V35.8a3.9,3.9,0,0,1,3.9-3.9H79.9a3.9,3.9,0,0,1,3.9,3.9V62.2A3.84,3.84,0,0,1,79.9,66.1ZM38.4,33.6a2.33,2.33,0,0,0-2.3,2.3V62.3a2.33,2.33,0,0,0,2.3,2.3H80a2.33,2.33,0,0,0,2.3-2.3V35.9A2.33,2.33,0,0,0,80,33.6Z"/><path class="cls-3" d="M70.8,32.2H69.2V29.7a2.33,2.33,0,0,0-2.3-2.3H51.4a2.33,2.33,0,0,0-2.3,2.3v2.5H47.5V29.7a3.9,3.9,0,0,1,3.9-3.9H66.9a3.9,3.9,0,0,1,3.9,3.9Z"/><rect class="cls-3" x="60.6" y="33" width="1.6" height="11.1"/><rect class="cls-3" x="56.1" y="33" width="1.6" height="11.1"/><rect class="cls-3" x="60.6" y="54.4" width="1.6" height="10.5"/><rect class="cls-3" x="56.1" y="54.4" width="1.6" height="10.5"/><path class="cls-3" d="M61.8,55.5H56.4a1.75,1.75,0,0,1-1.7-1.7V45.3a1.75,1.75,0,0,1,1.7-1.7h5.4a1.75,1.75,0,0,1,1.7,1.7v8.5A1.69,1.69,0,0,1,61.8,55.5ZM56.5,45.1l-.1,8.6,5.5.1.1-.1V45.2Z"/><rect class="cls-3" x="58.3" y="51.1" width="1.6" height="3"/><path class="cls-3" d="M32.5,75.5a.79.79,0,0,1,.8-.8h3.2a3.2,3.2,0,0,1,2.3.8,2,2,0,0,1,.6,1.5h0a2.13,2.13,0,0,1-1.3,2c1,.4,1.7.9,1.7,2.1h0c0,1.6-1.3,2.4-3.3,2.4H33.2a.79.79,0,0,1-.8-.8l.1-7.2Zm3.7,3c1,0,1.7-.4,1.7-1.2h0c0-.7-.6-1.1-1.5-1.1H34.2v2.3h2Zm.4,3.7c1.1,0,1.7-.4,1.7-1.2h0c0-.7-.6-1.2-1.8-1.2H34.1v2.4h2.5Z"/><path class="cls-3" d="M47.3,82.9a.8.8,0,0,1-1.6,0v-.3a2.39,2.39,0,0,1-2.1,1.2,2.29,2.29,0,0,1-2.4-2.5V77.8a.8.8,0,0,1,1.6,0v3.1c0,1,.5,1.6,1.4,1.6a1.45,1.45,0,0,0,1.5-1.6V77.8a.8.8,0,0,1,1.6,0v5.1Z"/><path class="cls-3" d="M49,82.9a.55.55,0,0,1-.3-.5.65.65,0,0,1,.6-.6.37.37,0,0,1,.3.1,3.53,3.53,0,0,0,1.9.6c.7,0,1-.3,1-.7h0c0-.5-.7-.7-1.5-.9-1-.3-2.1-.7-2.1-1.9h0c0-1.3,1-2,2.4-2a5.37,5.37,0,0,1,2.1.5.68.68,0,0,1,.4.6.58.58,0,0,1-.6.6.37.37,0,0,1-.3-.1,3.32,3.32,0,0,0-1.6-.5c-.6,0-.9.3-.9.7h0c0,.5.7.7,1.5.9,1,.3,2.1.7,2.1,1.9h0c0,1.4-1.1,2.1-2.5,2.1A4.38,4.38,0,0,1,49,82.9Z"/><path class="cls-3" d="M55.5,75.1c0-.5.4-.7.9-.7a.81.81,0,0,1,.9.7v.1a.82.82,0,0,1-.9.8.84.84,0,0,1-.9-.9Zm.1,2.5a.8.8,0,0,1,1.6,0v5.2a.8.8,0,0,1-1.6,0Z"/><path class="cls-3" d="M59.1,77.6a.8.8,0,0,1,1.6,0v.3a2.39,2.39,0,0,1,2.1-1.2,2.29,2.29,0,0,1,2.4,2.5v3.5a.8.8,0,0,1-1.6,0V79.6c0-1-.5-1.6-1.4-1.6a1.45,1.45,0,0,0-1.5,1.6v3.1a.8.8,0,0,1-1.6,0V77.6Z"/><path class="cls-3" d="M69.9,83.7a3.31,3.31,0,0,1-3.4-3.4h0a3.3,3.3,0,0,1,3.2-3.5,3.17,3.17,0,0,1,3.2,3.3.68.68,0,0,1-.7.7H68a1.85,1.85,0,0,0,1.9,1.7,2.45,2.45,0,0,0,1.6-.6c.1-.1.2-.1.4-.1a.65.65,0,0,1,.6.6.76.76,0,0,1-.2.5A3.46,3.46,0,0,1,69.9,83.7Zm1.5-3.9a1.69,1.69,0,0,0-1.7-1.7A1.75,1.75,0,0,0,68,79.8Z"/><path class="cls-3" d="M74.2,82.9a.55.55,0,0,1-.3-.5.65.65,0,0,1,.6-.6.37.37,0,0,1,.3.1,3.53,3.53,0,0,0,1.9.6c.7,0,1-.3,1-.7h0c0-.5-.7-.7-1.5-.9-1-.3-2.1-.7-2.1-1.9h0c0-1.3,1-2,2.4-2a5.37,5.37,0,0,1,2.1.5.68.68,0,0,1,.4.6.58.58,0,0,1-.6.6.37.37,0,0,1-.3-.1,3.32,3.32,0,0,0-1.6-.5c-.6,0-.9.3-.9.7h0c0,.5.7.7,1.5.9,1,.3,2.1.7,2.1,1.9h0c0,1.4-1.1,2.1-2.5,2.1A4.9,4.9,0,0,1,74.2,82.9Z"/><path class="cls-3" d="M80.4,82.9a.55.55,0,0,1-.3-.5.65.65,0,0,1,.6-.6.37.37,0,0,1,.3.1,3.53,3.53,0,0,0,1.9.6c.7,0,1-.3,1-.7h0c0-.5-.7-.7-1.5-.9-1-.3-2.1-.7-2.1-1.9h0c0-1.3,1-2,2.4-2a5.37,5.37,0,0,1,2.1.5.68.68,0,0,1,.4.6.58.58,0,0,1-.6.6.37.37,0,0,1-.3-.1,3.32,3.32,0,0,0-1.6-.5c-.6,0-.9.3-.9.7h0c0,.5.7.7,1.5.9,1,.3,2.1.7,2.1,1.9h0c0,1.4-1.1,2.1-2.5,2.1A4.9,4.9,0,0,1,80.4,82.9Z"/><path class="cls-3" d="M25.5,93.3h0A4.63,4.63,0,0,1,33,89.7a.6.6,0,0,1,.3.6.79.79,0,0,1-.8.8.76.76,0,0,1-.5-.2,3.23,3.23,0,0,0-2.1-.8A3,3,0,0,0,27,93.2h0a3,3,0,0,0,2.9,3.1,3.29,3.29,0,0,0,2.2-.8.76.76,0,0,1,.5-.2.68.68,0,0,1,.7.7.86.86,0,0,1-.3.6,4.64,4.64,0,0,1-3.2,1.2A4.26,4.26,0,0,1,25.5,93.3Z"/><path class="cls-3" d="M34.5,94.4h0A3.48,3.48,0,0,1,38,90.9a3.4,3.4,0,0,1,3.5,3.4h0a3.5,3.5,0,0,1-3.6,3.5A3.31,3.31,0,0,1,34.5,94.4Zm5.6,0h0a2.06,2.06,0,0,0-2-2.2,2,2,0,0,0-2,2.1h0a2,2,0,0,0,2,2.1A1.84,1.84,0,0,0,40.1,94.4Z"/><path class="cls-3" d="M43.1,91.8a.8.8,0,0,1,1.6,0v.3a2.39,2.39,0,0,1,2.1-1.2,2.29,2.29,0,0,1,2.4,2.5v3.5a.8.8,0,0,1-1.6,0V93.8c0-1-.5-1.6-1.4-1.6a1.45,1.45,0,0,0-1.5,1.6v3.1a.8.8,0,0,1-1.6,0V91.8Z"/><path class="cls-3" d="M50.7,97.1a.55.55,0,0,1-.3-.5A.65.65,0,0,1,51,96a.37.37,0,0,1,.3.1,3.53,3.53,0,0,0,1.9.6c.7,0,1-.3,1-.7h0c0-.5-.7-.7-1.5-.9-1-.3-2.1-.7-2.1-1.9h0c0-1.3,1-2,2.4-2a5.37,5.37,0,0,1,2.1.5.68.68,0,0,1,.4.6.58.58,0,0,1-.6.6.37.37,0,0,1-.3-.1,3.32,3.32,0,0,0-1.6-.5c-.6,0-.9.3-.9.7h0c0,.5.7.7,1.5.9,1,.3,2.1.7,2.1,1.9h0c0,1.4-1.1,2.1-2.5,2.1A5.28,5.28,0,0,1,50.7,97.1Z"/><path class="cls-3" d="M63.1,97a.8.8,0,0,1-1.6,0v-.3a2.39,2.39,0,0,1-2.1,1.2A2.29,2.29,0,0,1,57,95.4V91.9a.8.8,0,1,1,1.6,0V95c0,1,.5,1.6,1.4,1.6A1.45,1.45,0,0,0,61.5,95V91.9a.8.8,0,1,1,1.6,0V97Z"/><path class="cls-3" d="M65.1,89.2a.8.8,0,0,1,1.6,0V97a.8.8,0,0,1-1.6,0Z"/><path class="cls-3" d="M68.9,95.9V92.4h-.3a.7.7,0,0,1,0-1.4h.3V89.9a.8.8,0,0,1,1.6,0V91h1.2a.7.7,0,0,1,0,1.4H70.5v3.3c0,.6.3.8.8.8h.4a.65.65,0,0,1,.6.6.68.68,0,0,1-.4.6,3,3,0,0,1-1,.2C69.7,97.8,68.9,97.3,68.9,95.9Z"/><path class="cls-3" d="M73.7,89.3c0-.5.4-.7.9-.7a.81.81,0,0,1,.9.7v.1a.82.82,0,0,1-.9.8.9.9,0,0,1-.9-.9Zm.1,2.5a.8.8,0,0,1,1.6,0V97a.8.8,0,0,1-1.6,0Z"/><path class="cls-3" d="M77.3,91.8a.8.8,0,0,1,1.6,0v.3A2.39,2.39,0,0,1,81,90.9a2.29,2.29,0,0,1,2.4,2.5v3.5a.8.8,0,0,1-1.6,0V93.8c0-1-.5-1.6-1.4-1.6a1.45,1.45,0,0,0-1.5,1.6v3.1a.8.8,0,0,1-1.6,0V91.8Z"/><path class="cls-3" d="M85.5,99.2a.55.55,0,0,1-.4-.6.65.65,0,0,1,.6-.6.37.37,0,0,1,.3.1,4.55,4.55,0,0,0,2,.5,1.83,1.83,0,0,0,2.1-2v-.5a2.79,2.79,0,0,1-2.3,1.2,3,3,0,0,1-3-3.1h0a3,3,0,0,1,3-3.1,2.84,2.84,0,0,1,2.3,1.1v-.3a.8.8,0,1,1,1.6,0v4.6a3.74,3.74,0,0,1-.8,2.5,3.67,3.67,0,0,1-2.7.9A7.14,7.14,0,0,1,85.5,99.2Zm4.6-5.1h0a1.81,1.81,0,0,0-1.9-1.8,1.76,1.76,0,0,0-1.9,1.8h0a1.9,1.9,0,0,0,3.8,0Z"/></svg>