<svg id="main" xmlns="http://www.w3.org/2000/svg" xmlns:xlink="http://www.w3.org/1999/xlink" width="117.5" height="131.1" viewBox="0 0 117.5 131.1"><defs><style>.cls-1{fill:#3cd52e;}.cls-2{fill:url(#linear-gradient);}.cls-3{fill:#fff;}</style><linearGradient id="linear-gradient" x1="2.04" y1="-527.71" x2="115.46" y2="-593.19" gradientTransform="translate(0 626)" gradientUnits="userSpaceOnUse"><stop offset="0" stop-color="#375053" stop-opacity="0"/><stop offset="0.2" stop-color="#365152" stop-opacity="0.2"/><stop offset="0.42" stop-color="#33524e" stop-opacity="0.42"/><stop offset="0.63" stop-color="#2f5447" stop-opacity="0.63"/><stop offset="0.85" stop-color="#27563c" stop-opacity="0.85"/><stop offset="1" stop-color="#1f5833"/></linearGradient></defs><title>Artboard 27</title><path class="cls-1" d="M58.7,131.1A15.12,15.12,0,0,1,51,129L7.7,104A15.49,15.49,0,0,1,0,90.6V40.5A15.7,15.7,0,0,1,7.7,27.1L51,2.1a15.35,15.35,0,0,1,15.5,0l43.3,25a15.49,15.49,0,0,1,7.7,13.4V90.6a15.7,15.7,0,0,1-7.7,13.4L66.5,129A16,16,0,0,1,58.7,131.1Z"/><path class="cls-2" d="M58.7,131.1A15.12,15.12,0,0,1,51,129L7.7,104A15.49,15.49,0,0,1,0,90.6V40.5A15.7,15.7,0,0,1,7.7,27.1L51,2.1a15.35,15.35,0,0,1,15.5,0l43.3,25a15.49,15.49,0,0,1,7.7,13.4V90.6a15.7,15.7,0,0,1-7.7,13.4L66.5,129A16,16,0,0,1,58.7,131.1Z"/><path class="cls-3" d="M69.2,61.9l-4.2-6,.6-.4a12.52,12.52,0,0,0,4.8-6.7l1.4.4A13.92,13.92,0,0,1,67,56.3l2.6,3.6c.1-.1.2-.2.3-.2a17.36,17.36,0,0,0,6.1-9l1.4.4a19.06,19.06,0,0,1-6.6,9.7,8.65,8.65,0,0,1-1,.7Z"/><path class="cls-3" d="M42.6,57.3l-.4-.6A19.52,19.52,0,0,1,38.6,45l.1-1.2a2,2,0,0,1,.1-.8A20.09,20.09,0,0,1,50.2,27.2l.5-.2a19.16,19.16,0,0,1,4.9-1.4c.3,0,.5-.1.7-.1l.7-.1.2.7-.1-.7h1.5a.68.68,0,0,1,.7.7.67.67,0,0,1-.6.7h-.9l-.2-.7v.7h-.5l-.8.1a2,2,0,0,0-.7.1,16.71,16.71,0,0,0-4.5,1.3l-.5.2A18.29,18.29,0,0,0,40.1,43c0,.3-.1.5-.1.8L39.9,45a18,18,0,0,0,3,10.3l3.6-2.6a13.64,13.64,0,0,1-2.1-7.6A13.89,13.89,0,0,1,58.3,31.4h.2a.7.7,0,0,1,0,1.4h-.2A12.53,12.53,0,0,0,45.8,45.1a13,13,0,0,0,2.3,7.4l.4.6Z"/><path class="cls-3" d="M58.4,65.1h-1l-.2-.7v.7h-.1a2,2,0,0,1-.8-.1A19,19,0,0,1,43,57.6c-.2-.3-.4-.5-.6-.8l-.5-.7,6-4.2.4.6a12.61,12.61,0,0,0,10,5.3,13,13,0,0,0,7.4-2.3l.6-.4,3.5,5c.1,0,.1,0,.2.1l.4.2v.4a.91.91,0,0,1-.3.7h0c-.1.1-.2.2-.3.2l-.1.1-.3.2h0A21.79,21.79,0,0,1,58.4,65.1ZM43.8,56.4c.1.1.1.2.2.3a17.63,17.63,0,0,0,12.2,6.8c.4,0,.6.1.9.1h1.1a18,18,0,0,0,10.3-3L65.9,57a13.64,13.64,0,0,1-7.6,2.1,14.16,14.16,0,0,1-10.8-5.3Z"/><path class="cls-3" d="M80,52.6,58,45.5V22.4h.7a20.92,20.92,0,0,1,7,1.1A22.34,22.34,0,0,1,78.8,34.7a22.86,22.86,0,0,1,1.4,17.2ZM59.5,44.5l19.6,6.4a20.61,20.61,0,0,0-1.5-15.4A21,21,0,0,0,65.3,25a19.64,19.64,0,0,0-5.8-1Z"/><polygon class="cls-3" points="71.2 36.5 70.2 35.5 76.6 29 82.9 29 82.9 30.4 77.2 30.4 71.2 36.5"/><rect class="cls-3" x="79.1" y="25.2" width="3.8" height="1.4"/><path class="cls-3" d="M32.9,75.5a.79.79,0,0,1,.8-.8h2.7c2.1,0,3.3,1.2,3.3,2.9h0c0,2-1.6,3-3.5,3H34.5v2.1a.8.8,0,1,1-1.6,0Zm3.3,3.8c1.2,0,1.9-.7,1.9-1.6h0c0-1-.7-1.6-1.9-1.6H34.4v3.2Z"/><path class="cls-3" d="M40.6,80.3h0a3.48,3.48,0,0,1,3.5-3.5,3.4,3.4,0,0,1,3.5,3.4h0A3.5,3.5,0,0,1,44,83.7,3.37,3.37,0,0,1,40.6,80.3Zm5.6,0h0a2.06,2.06,0,0,0-2-2.2,2,2,0,0,0-2,2.1h0a2,2,0,0,0,2,2.1A1.89,1.89,0,0,0,46.2,80.3Z"/><path class="cls-3" d="M49.3,77.6a.8.8,0,0,1,1.6,0v.7c.4-.8,1-1.5,1.7-1.5a.74.74,0,0,1,.8.8.67.67,0,0,1-.6.7c-1.1.2-1.8,1-1.8,2.6v2a.8.8,0,0,1-1.6,0l-.1-5.3Z"/><path class="cls-3" d="M54.8,81.7V78.2h-.3a.7.7,0,0,1,0-1.4h.3V75.7a.8.8,0,0,1,1.6,0v1.1h1.2a.7.7,0,0,1,0,1.4H56.4v3.3c0,.6.3.8.8.8h.4a.65.65,0,0,1,.6.6.68.68,0,0,1-.4.6,3,3,0,0,1-1,.2C55.5,83.7,54.8,83.2,54.8,81.7Z"/><path class="cls-3" d="M59.9,78.2h-.3a.58.58,0,0,1-.6-.6.65.65,0,0,1,.6-.6h.3v-.5a2.35,2.35,0,0,1,.5-1.6,2.07,2.07,0,0,1,1.5-.5,2,2,0,0,1,.8.1.56.56,0,0,1,.5.6.58.58,0,0,1-.6.6h-.3c-.6,0-.9.3-.9,1v.4h1.2a.58.58,0,0,1,.6.6.65.65,0,0,1-.6.6H61.4v4.6a.8.8,0,0,1-1.6,0l.1-4.7Z"/><path class="cls-3" d="M63.8,80.3h0a3.48,3.48,0,0,1,3.5-3.5,3.4,3.4,0,0,1,3.5,3.4h0a3.5,3.5,0,0,1-3.6,3.5A3.37,3.37,0,0,1,63.8,80.3Zm5.6,0h0a2.06,2.06,0,0,0-2-2.2,2,2,0,0,0-2,2.1h0a2,2,0,0,0,2,2.1A1.89,1.89,0,0,0,69.4,80.3Z"/><path class="cls-3" d="M72.5,75.1a.79.79,0,0,1,.8-.8.74.74,0,0,1,.8.8v7.8a.8.8,0,0,1-1.6,0Z"/><path class="cls-3" d="M76,75.1c0-.5.4-.7.9-.7a.81.81,0,0,1,.9.7v.1a.82.82,0,0,1-.9.8.84.84,0,0,1-.9-.9Zm.1,2.5a.79.79,0,0,1,.8-.8.74.74,0,0,1,.8.8v5.2a.8.8,0,1,1-1.6,0Z"/><path class="cls-3" d="M79.3,80.3h0a3.48,3.48,0,0,1,3.5-3.5,3.4,3.4,0,0,1,3.5,3.4h0a3.5,3.5,0,0,1-3.6,3.5A3.37,3.37,0,0,1,79.3,80.3Zm5.5,0h0a2.06,2.06,0,0,0-2-2.2,2,2,0,0,0-2,2.1h0a2,2,0,0,0,2,2.1A1.89,1.89,0,0,0,84.8,80.3Z"/><path class="cls-3" d="M26.2,94.2h0a4.63,4.63,0,0,1,7.5-3.6.6.6,0,0,1,.3.6.79.79,0,0,1-.8.8.76.76,0,0,1-.5-.2,3.23,3.23,0,0,0-2.1-.8,3,3,0,0,0-2.9,3.1h0a3,3,0,0,0,2.9,3.1,3.29,3.29,0,0,0,2.2-.8.76.76,0,0,1,.5-.2.68.68,0,0,1,.7.7.86.86,0,0,1-.3.6,4.64,4.64,0,0,1-3.2,1.2A4.26,4.26,0,0,1,26.2,94.2Z"/><path class="cls-3" d="M35.2,95.3h0a3.48,3.48,0,0,1,3.5-3.5,3.4,3.4,0,0,1,3.5,3.4h0a3.5,3.5,0,0,1-3.6,3.5A3.26,3.26,0,0,1,35.2,95.3Zm5.5,0h0a2.06,2.06,0,0,0-2-2.2,2,2,0,0,0-2,2.1h0a2,2,0,0,0,2,2.1A1.84,1.84,0,0,0,40.7,95.3Z"/><path class="cls-3" d="M43.8,92.7a.79.79,0,0,1,.8-.8.74.74,0,0,1,.8.8V93a2.39,2.39,0,0,1,2.1-1.2,2.29,2.29,0,0,1,2.4,2.5v3.5a.8.8,0,1,1-1.6,0V94.7c0-1-.5-1.6-1.4-1.6a1.45,1.45,0,0,0-1.5,1.6v3.1a.8.8,0,1,1-1.6,0Z"/><path class="cls-3" d="M51.3,98a.55.55,0,0,1-.3-.5.65.65,0,0,1,.6-.6.37.37,0,0,1,.3.1,3.53,3.53,0,0,0,1.9.6c.7,0,1-.3,1-.7h0c0-.5-.7-.7-1.5-.9-1-.3-2.1-.7-2.1-1.9h0c0-1.3,1-2,2.4-2a5.37,5.37,0,0,1,2.1.5.68.68,0,0,1,.4.6.58.58,0,0,1-.6.6.37.37,0,0,1-.3-.1,3.32,3.32,0,0,0-1.6-.5c-.6,0-.9.3-.9.7h0c0,.5.7.7,1.5.9,1,.3,2.1.7,2.1,1.9h0c0,1.4-1.1,2.1-2.5,2.1A6.09,6.09,0,0,1,51.3,98Z"/><path class="cls-3" d="M63.7,97.9a.8.8,0,0,1-1.6,0v-.3A2.39,2.39,0,0,1,60,98.8a2.29,2.29,0,0,1-2.4-2.5V92.8a.8.8,0,0,1,1.6,0v3.1c0,1,.5,1.6,1.4,1.6a1.45,1.45,0,0,0,1.5-1.6V92.8a.8.8,0,0,1,1.6,0Z"/><path class="cls-3" d="M65.7,90.1a.79.79,0,0,1,.8-.8.74.74,0,0,1,.8.8v7.8a.8.8,0,0,1-1.6,0Z"/><path class="cls-3" d="M69.5,96.8V93.3h-.3a.7.7,0,1,1,0-1.4h.3V90.8a.8.8,0,1,1,1.6,0v1.1h1.2a.7.7,0,1,1,0,1.4H71.1v3.3c0,.6.3.8.8.8h.4a.65.65,0,0,1,.6.6.68.68,0,0,1-.4.6,3,3,0,0,1-1,.2C70.3,98.7,69.5,98.2,69.5,96.8Z"/><path class="cls-3" d="M74.4,90.2c0-.5.4-.7.9-.7a.81.81,0,0,1,.9.7v.1a.82.82,0,0,1-.9.8q-.9-.15-.9-.9Zm.1,2.5a.8.8,0,0,1,1.6,0v5.2a.8.8,0,0,1-1.6,0Z"/><path class="cls-3" d="M78,92.7a.8.8,0,0,1,1.6,0V93a2.39,2.39,0,0,1,2.1-1.2,2.29,2.29,0,0,1,2.4,2.5v3.5a.79.79,0,0,1-.8.8.74.74,0,0,1-.8-.8V94.7c0-1-.5-1.6-1.4-1.6a1.45,1.45,0,0,0-1.5,1.6v3.1a.8.8,0,1,1-1.6,0Z"/><path class="cls-3" d="M86.2,100.1a.55.55,0,0,1-.4-.6.65.65,0,0,1,.6-.6.37.37,0,0,1,.3.1,4.55,4.55,0,0,0,2,.5,1.83,1.83,0,0,0,2.1-2V97a2.79,2.79,0,0,1-2.3,1.2,3,3,0,0,1-3-3.1h0a3,3,0,0,1,3-3.1,2.84,2.84,0,0,1,2.3,1.1v-.3a.8.8,0,1,1,1.6,0v4.6a3.74,3.74,0,0,1-.8,2.5,3.67,3.67,0,0,1-2.7.9A7.14,7.14,0,0,1,86.2,100.1ZM90.8,95h0A1.9,1.9,0,0,0,87,95h0a1.76,1.76,0,0,0,1.9,1.8A1.81,1.81,0,0,0,90.8,95Z"/></svg>