<svg id="main" xmlns="http://www.w3.org/2000/svg" xmlns:xlink="http://www.w3.org/1999/xlink" width="117.5" height="131.1" viewBox="0 0 117.5 131.1"><defs><style>.cls-1{fill:#cd25b0;}.cls-2{fill:url(#linear-gradient);}.cls-3{fill:#fff;}</style><linearGradient id="linear-gradient" x1="2.04" y1="-527.71" x2="115.46" y2="-593.19" gradientTransform="translate(0 626)" gradientUnits="userSpaceOnUse"><stop offset="0" stop-color="#eb2227" stop-opacity="0"/><stop offset="0.14" stop-color="#e7232a" stop-opacity="0.14"/><stop offset="0.29" stop-color="#de2330" stop-opacity="0.29"/><stop offset="0.44" stop-color="#d02339" stop-opacity="0.44"/><stop offset="0.59" stop-color="#bd2547" stop-opacity="0.59"/><stop offset="0.75" stop-color="#a52554" stop-opacity="0.75"/><stop offset="0.9" stop-color="#8b2563" stop-opacity="0.9"/><stop offset="1" stop-color="#78256d"/></linearGradient></defs><title>Artboard 26</title><path class="cls-1" d="M58.7,131.1A15.12,15.12,0,0,1,51,129L7.7,104A15.49,15.49,0,0,1,0,90.6V40.5A15.7,15.7,0,0,1,7.7,27.1L51,2.1a15.35,15.35,0,0,1,15.5,0l43.3,25a15.49,15.49,0,0,1,7.7,13.4V90.6a15.7,15.7,0,0,1-7.7,13.4L66.5,129A15.75,15.75,0,0,1,58.7,131.1Z"/><path class="cls-2" d="M58.7,131.1A15.12,15.12,0,0,1,51,129L7.7,104A15.49,15.49,0,0,1,0,90.6V40.5A15.7,15.7,0,0,1,7.7,27.1L51,2.1a15.35,15.35,0,0,1,15.5,0l43.3,25a15.49,15.49,0,0,1,7.7,13.4V90.6a15.7,15.7,0,0,1-7.7,13.4L66.5,129A15.75,15.75,0,0,1,58.7,131.1Z"/><rect class="cls-3" x="59.2" y="56.6" width="3.3" height="1.4"/><rect class="cls-3" x="78.4" y="31.4" width="1.4" height="16.4"/><path class="cls-3" d="M39.3,58.1A2.26,2.26,0,0,1,37,55.8V31.4h1.4V55.8a.82.82,0,0,0,.9.8Z"/><rect class="cls-3" x="41.2" y="32.1" width="2.1" height="1.4"/><rect class="cls-3" x="45.8" y="32.1" width="2.1" height="1.4"/><rect class="cls-3" x="50.5" y="32.1" width="2.1" height="1.4"/><rect class="cls-3" x="55.1" y="32.1" width="2.1" height="1.4"/><rect class="cls-3" x="59.7" y="32.1" width="2.1" height="1.4"/><rect class="cls-3" x="64.4" y="32.1" width="2.1" height="1.4"/><rect class="cls-3" x="69" y="32.1" width="2.1" height="1.4"/><rect class="cls-3" x="73.7" y="32.1" width="2.1" height="1.4"/><rect class="cls-3" x="41.2" y="35.9" width="2.1" height="1.4"/><rect class="cls-3" x="45.8" y="35.9" width="2.1" height="1.4"/><rect class="cls-3" x="50.5" y="35.9" width="2.1" height="1.4"/><rect class="cls-3" x="55.1" y="35.9" width="2.1" height="1.4"/><rect class="cls-3" x="59.7" y="35.9" width="2.1" height="1.4"/><rect class="cls-3" x="64.4" y="35.9" width="2.1" height="1.4"/><rect class="cls-3" x="69" y="35.9" width="2.1" height="1.4"/><rect class="cls-3" x="73.7" y="35.9" width="2.1" height="1.4"/><rect class="cls-3" x="41.2" y="39.8" width="2.1" height="1.4"/><rect class="cls-3" x="55.1" y="39.8" width="2.1" height="1.4"/><rect class="cls-3" x="59.7" y="39.8" width="2.1" height="1.4"/><rect class="cls-3" x="64.4" y="39.8" width="2.1" height="1.4"/><rect class="cls-3" x="73.7" y="39.8" width="2.1" height="1.4"/><rect class="cls-3" x="55.1" y="43.6" width="10.8" height="1.4"/><rect class="cls-3" x="59.7" y="43.6" width="2.1" height="1.4"/><rect class="cls-3" x="64.4" y="43.6" width="2.1" height="1.4"/><rect class="cls-3" x="73.7" y="43.6" width="2.1" height="1.4"/><path class="cls-3" d="M83.1,30.2H33.8l.6-1.1c.8-1.4,2.4-3,4.3-3H78.2a5.28,5.28,0,0,1,4.3,3ZM36.4,28.7h44a3.48,3.48,0,0,0-2.2-1.2H38.7A4,4,0,0,0,36.4,28.7Z"/><path class="cls-3" d="M80.1,65.3H78.7V62.9l.3-.2A3.37,3.37,0,0,0,80.3,60V53l-.1-1.5a.79.79,0,0,0-.8-.8c-.8,0-.8.3-.8.4H77.2v-.4a.8.8,0,1,0-1.6,0H74.2v-.8a.8.8,0,1,0-1.6,0v.8H71.2V42a.8.8,0,1,0-1.6,0V57.2H68.2V53.4a1.58,1.58,0,0,0-1.6-1.6h0v5.7l4.2,4.9a6.38,6.38,0,0,0,1.4.8l.5.1v1.9H71.3v-.8a5.37,5.37,0,0,1-1.6-1l-4.6-5.3V50.4h1.5a3,3,0,0,1,1.6.5V42.1a2.3,2.3,0,0,1,4.6,0h0v5.7a2.42,2.42,0,0,1,2.7.9,2,2,0,0,1,1.1-.3,2.1,2.1,0,0,1,1.8,1,3.73,3.73,0,0,1,1.2-.2,2.22,2.22,0,0,1,2.2,2.2l.1,1.5V60a4.84,4.84,0,0,1-1.6,3.6v1.7h-.2Z"/><path class="cls-3" d="M43.4,65.3H42V63.6A4.84,4.84,0,0,1,40.4,60V50.8h1.4V60a3.51,3.51,0,0,0,1.3,2.7l.3.2Z"/><path class="cls-3" d="M50.9,65.3H49.5V63.4l.5-.1a2.75,2.75,0,0,0,1.5-.8l4.1-4.8V52A1.58,1.58,0,0,0,54,53.6v3.9H52.6V51H54v.1a3,3,0,0,1,1.6-.5H57l.1.7v7l-4.5,5.3a6.19,6.19,0,0,1-1.7,1.1v.6Z"/><path class="cls-3" d="M44.8,50.9H43.4V45.4a.8.8,0,1,0-1.6,0v5.5H40.4V45.4a2.2,2.2,0,1,1,4.4,0Z"/><path class="cls-3" d="M47.9,50.9H46.5V42.2a.8.8,0,0,0-1.6,0v8.7H43.5V42.2a2.2,2.2,0,1,1,4.4,0Z"/><path class="cls-3" d="M50.9,50.9H49.5V40.6a.8.8,0,0,0-1.6,0V50.9H46.5V40.6a2.2,2.2,0,0,1,4.4,0Z"/><path class="cls-3" d="M54,50.9H52.5V43.2a.8.8,0,0,0-1.6,0v7.7H49.5V43.2a2.2,2.2,0,1,1,4.4,0l.1,7.7Z"/><polygon class="cls-3" points="69.7 68.4 68.3 68.4 68.3 64.8 82 64.8 82 66.2 69.7 66.2 69.7 68.4"/><polygon class="cls-3" points="54.2 68.4 52.7 68.4 52.7 66.2 39.1 66.2 39.1 64.8 54.2 64.8 54.2 68.4"/><polygon class="cls-3" points="54.2 68.4 52.7 68.4 52.7 66.2 39.1 66.2 39.1 64.8 54.2 64.8 54.2 68.4"/><path class="cls-3" d="M40.3,84.1l-3.1-7.2c0-.1-.1-.2-.1-.4a.79.79,0,0,1,.8-.8.76.76,0,0,1,.8.6l2.5,6.3,2.6-6.4a.75.75,0,0,1,.7-.5.77.77,0,0,1,.8.7.37.37,0,0,1-.1.3L42.1,84a1,1,0,0,1-.9.6h-.1C40.8,84.8,40.5,84.5,40.3,84.1Z"/><path class="cls-3" d="M46.5,76.2c0-.5.4-.7.9-.7a.81.81,0,0,1,.9.7v.1a.82.82,0,0,1-.9.8c-.5-.1-.9-.4-.9-.9Zm.1,2.5a.79.79,0,0,1,.8-.8.74.74,0,0,1,.8.8v5.2a.8.8,0,1,1-1.6,0Z"/><path class="cls-3" d="M50.1,78.7a.8.8,0,1,1,1.6,0v.7c.4-.8,1-1.5,1.7-1.5a.74.74,0,0,1,.8.8.67.67,0,0,1-.6.7c-1.1.2-1.8,1-1.8,2.6v2a.8.8,0,0,1-1.6,0V78.7h-.1Z"/><path class="cls-3" d="M55.6,82.8V79.3h-.3a.7.7,0,0,1,0-1.4h.3V76.8a.8.8,0,1,1,1.6,0v1.1h1.2a.7.7,0,1,1,0,1.4H57.2v3.3c0,.6.3.8.8.8h.4a.65.65,0,0,1,.6.6.68.68,0,0,1-.4.6,3,3,0,0,1-1,.2C56.4,84.7,55.6,84.3,55.6,82.8Z"/><path class="cls-3" d="M66.4,83.9a.8.8,0,0,1-1.6,0v-.3a2.39,2.39,0,0,1-2.1,1.2,2.29,2.29,0,0,1-2.4-2.5V78.8a.8.8,0,0,1,1.6,0v3.1c0,1,.5,1.6,1.4,1.6a1.45,1.45,0,0,0,1.5-1.6V78.8a.8.8,0,1,1,1.6,0Z"/><path class="cls-3" d="M67.8,82.7h0c0-1.5,1.1-2.2,2.7-2.2a4.84,4.84,0,0,1,1.8.3v-.2c0-.9-.6-1.4-1.6-1.4a3.34,3.34,0,0,0-1.5.3H69a.58.58,0,0,1-.6-.6.68.68,0,0,1,.4-.6,6.54,6.54,0,0,1,2.1-.4,3.39,3.39,0,0,1,2.2.7,2.72,2.72,0,0,1,.7,2v3.3a.68.68,0,0,1-.7.7.67.67,0,0,1-.7-.6v-.3a2.87,2.87,0,0,1-2.2,1A2,2,0,0,1,67.8,82.7Zm4.6-.5v-.5a3.34,3.34,0,0,0-1.5-.3c-1,0-1.6.4-1.6,1.1h0c0,.6.6,1,1.3,1A1.39,1.39,0,0,0,72.4,82.2Z"/><path class="cls-3" d="M75.7,76.2a.8.8,0,1,1,1.6,0V84a.8.8,0,0,1-1.6,0Z"/><path class="cls-3" d="M13.4,97.8l3.3-7.3a1,1,0,0,1,.9-.6h.1a1,1,0,0,1,.9.6l3.3,7.3a.37.37,0,0,1,.1.3.68.68,0,0,1-.7.7.89.89,0,0,1-.8-.5l-.7-1.6H15.5l-.7,1.7a.75.75,0,0,1-.7.5.68.68,0,0,1-.7-.7C13.3,98,13.3,97.9,13.4,97.8Zm5.8-2.5-1.5-3.6-1.5,3.6Z"/><path class="cls-3" d="M29.8,98.1a.8.8,0,1,1-1.6,0v-.4a2.66,2.66,0,0,1-2.3,1.2,3.13,3.13,0,0,1-3.1-3.4h0a3.13,3.13,0,0,1,3.1-3.4,2.66,2.66,0,0,1,2.3,1.2V90.4a.8.8,0,1,1,1.6,0Zm-5.4-2.6h0a2,2,0,0,0,1.9,2.1,2,2,0,0,0,1.9-2.1h0a1.91,1.91,0,1,0-3.8,0Z"/><path class="cls-3" d="M31.7,92.9a.79.79,0,0,1,.8-.8.74.74,0,0,1,.8.8v.3a2.27,2.27,0,0,1,2-1.1,2.16,2.16,0,0,1,2,1.2,2.61,2.61,0,0,1,2.2-1.2,2.21,2.21,0,0,1,2.3,2.5v3.5a.79.79,0,0,1-.8.8.74.74,0,0,1-.8-.8V95c0-1.1-.5-1.6-1.3-1.6A1.43,1.43,0,0,0,37.5,95v3.1a.8.8,0,0,1-1.6,0V95c0-1-.5-1.6-1.3-1.6A1.43,1.43,0,0,0,33.2,95v3.1a.8.8,0,0,1-1.6,0V92.9h.1Z"/><path class="cls-3" d="M43.6,90.4c0-.5.4-.7.9-.7a.81.81,0,0,1,.9.7v.1a.82.82,0,0,1-.9.8c-.5-.1-.9-.4-.9-.9Zm.1,2.5a.79.79,0,0,1,.8-.8.74.74,0,0,1,.8.8v5.2a.8.8,0,1,1-1.6,0Z"/><path class="cls-3" d="M47.2,92.9a.79.79,0,0,1,.8-.8.74.74,0,0,1,.8.8v.3A2.39,2.39,0,0,1,50.9,92a2.29,2.29,0,0,1,2.4,2.5V98a.8.8,0,1,1-1.6,0V94.9c0-1-.5-1.6-1.4-1.6a1.45,1.45,0,0,0-1.5,1.6V98a.8.8,0,1,1-1.6,0Z"/><path class="cls-3" d="M55,90.4c0-.5.4-.7.9-.7a.81.81,0,0,1,.9.7v.1a.82.82,0,0,1-.9.8q-.9-.15-.9-.9Zm.1,2.5a.8.8,0,1,1,1.6,0v5.2a.8.8,0,1,1-1.6,0Z"/><path class="cls-3" d="M58.3,98.1a.55.55,0,0,1-.3-.5.65.65,0,0,1,.6-.6.37.37,0,0,1,.3.1,3.53,3.53,0,0,0,1.9.6c.7,0,1-.3,1-.7h0c0-.5-.7-.7-1.5-.9-1-.3-2.1-.7-2.1-1.9h0c0-1.3,1-2,2.4-2a5.37,5.37,0,0,1,2.1.5.68.68,0,0,1,.4.6.58.58,0,0,1-.6.6.37.37,0,0,1-.3-.1,3.32,3.32,0,0,0-1.6-.5c-.6,0-.9.3-.9.7h0c0,.5.7.7,1.5.9,1,.3,2.1.7,2.1,1.9h0c0,1.4-1.1,2.1-2.5,2.1A4.12,4.12,0,0,1,58.3,98.1Z"/><path class="cls-3" d="M65.1,97V93.5h-.3a.7.7,0,0,1,0-1.4h.3V91a.8.8,0,0,1,1.6,0v1.1h1.2a.7.7,0,1,1,0,1.4H66.7v3.3c0,.6.3.8.8.8h.4a.65.65,0,0,1,.6.6.68.68,0,0,1-.4.6,3,3,0,0,1-1,.2C65.9,98.9,65.1,98.4,65.1,97Z"/><path class="cls-3" d="M69.9,92.9a.79.79,0,0,1,.8-.8.74.74,0,0,1,.8.8v.7c.4-.8,1-1.5,1.7-1.5a.74.74,0,0,1,.8.8.67.67,0,0,1-.6.7c-1.1.2-1.8,1-1.8,2.6v2a.8.8,0,1,1-1.6,0l-.1-5.3Z"/><path class="cls-3" d="M74.3,96.9h0c0-1.5,1.1-2.2,2.7-2.2a4.84,4.84,0,0,1,1.8.3v-.2c0-.9-.6-1.4-1.6-1.4a3.34,3.34,0,0,0-1.5.3h-.2a.58.58,0,0,1-.6-.6.68.68,0,0,1,.4-.6,6.54,6.54,0,0,1,2.1-.4,3.39,3.39,0,0,1,2.2.7,2.72,2.72,0,0,1,.7,2v3.3a.68.68,0,0,1-.7.7.67.67,0,0,1-.7-.6v-.3a2.87,2.87,0,0,1-2.2,1C75.4,98.9,74.3,98.2,74.3,96.9Zm4.6-.5v-.5a3.34,3.34,0,0,0-1.5-.3c-1,0-1.6.4-1.6,1.1h0c0,.6.6,1,1.3,1C78.1,97.8,78.9,97.3,78.9,96.4Z"/><path class="cls-3" d="M82.4,97V93.5h-.3a.7.7,0,1,1,0-1.4h.3V91A.8.8,0,0,1,84,91v1.1h1.2a.68.68,0,0,1,.7.7.77.77,0,0,1-.8.7H83.9v3.3c0,.6.3.8.8.8h.4a.65.65,0,0,1,.6.6.68.68,0,0,1-.4.6,3,3,0,0,1-1,.2A1.81,1.81,0,0,1,82.4,97Z"/><path class="cls-3" d="M87.2,90.4c0-.5.4-.7.9-.7a.81.81,0,0,1,.9.7v.1a.82.82,0,0,1-.9.8c-.5-.1-.9-.4-.9-.9Zm.1,2.5a.79.79,0,0,1,.8-.8.74.74,0,0,1,.8.8v5.2a.8.8,0,1,1-1.6,0Z"/><path class="cls-3" d="M90.5,95.5h0A3.48,3.48,0,0,1,94,92a3.4,3.4,0,0,1,3.5,3.4h0a3.5,3.5,0,0,1-3.6,3.5A3.31,3.31,0,0,1,90.5,95.5Zm5.5,0h0a2.06,2.06,0,0,0-2-2.2,2,2,0,0,0-2,2.1h0a2,2,0,0,0,2,2.1A1.8,1.8,0,0,0,96,95.5Z"/><path class="cls-3" d="M99.1,92.9a.79.79,0,0,1,.8-.8.74.74,0,0,1,.8.8v.3a2.39,2.39,0,0,1,2.1-1.2,2.29,2.29,0,0,1,2.4,2.5V98a.8.8,0,0,1-1.6,0V94.9c0-1-.5-1.6-1.4-1.6a1.45,1.45,0,0,0-1.5,1.6V98a.8.8,0,0,1-1.6,0Z"/></svg>