<svg id="main" xmlns="http://www.w3.org/2000/svg" xmlns:xlink="http://www.w3.org/1999/xlink" width="117.5" height="131.1" viewBox="0 0 117.5 131.1"><defs><style>.cls-1{fill:#00afaa;}.cls-2{fill:url(#linear-gradient);}.cls-3{fill:#fff;}</style><linearGradient id="linear-gradient" x1="2.04" y1="-527.71" x2="115.46" y2="-593.19" gradientTransform="translate(0 626)" gradientUnits="userSpaceOnUse"><stop offset="0" stop-color="#375053" stop-opacity="0"/><stop offset="0.29" stop-color="#355354" stop-opacity="0.29"/><stop offset="0.59" stop-color="#2f5a57" stop-opacity="0.59"/><stop offset="0.89" stop-color="#1b665b" stop-opacity="0.89"/><stop offset="1" stop-color="#046c5c"/></linearGradient></defs><title>Artboard 28</title><path class="cls-1" d="M58.7,131.1A15.12,15.12,0,0,1,51,129L7.7,104A15.49,15.49,0,0,1,0,90.6V40.5A15.7,15.7,0,0,1,7.7,27.1L51,2.1a15.35,15.35,0,0,1,15.5,0l43.3,25a15.49,15.49,0,0,1,7.7,13.4V90.6a15.7,15.7,0,0,1-7.7,13.4L66.5,129A16,16,0,0,1,58.7,131.1Z"/><path class="cls-2" d="M58.7,131.1A15.12,15.12,0,0,1,51,129L7.7,104A15.49,15.49,0,0,1,0,90.6V40.5A15.7,15.7,0,0,1,7.7,27.1L51,2.1a15.35,15.35,0,0,1,15.5,0l43.3,25a15.49,15.49,0,0,1,7.7,13.4V90.6a15.7,15.7,0,0,1-7.7,13.4L66.5,129A16,16,0,0,1,58.7,131.1Z"/><polygon class="cls-3" points="71.9 32.4 70.5 32.4 70.5 26.7 51.7 26.7 51.7 25.2 71.9 25.2 71.9 32.4"/><polygon class="cls-3" points="71.9 63.5 60.9 63.5 60.9 62.1 70.5 62.1 70.5 52.3 71.9 52.3 71.9 63.5"/><polygon class="cls-3" points="46.6 63.5 43.5 63.5 43.5 33.4 45 33.4 45 62.1 46.6 62.1 46.6 63.5"/><path class="cls-3" d="M49,28.6v2.1H46.9L49,28.6m1.5-3.5-7.1,7.1h7.1V25.1Z"/><rect class="cls-3" x="46.27" y="67.49" width="3.2" height="1.5" transform="translate(-34.23 53.84) rotate(-45)"/><polygon class="cls-3" points="85.9 34.7 84.8 33.6 86.3 32.2 84 29.9 82.5 31.3 81.5 30.3 84 27.8 88.4 32.2 85.9 34.7"/><polygon class="cls-3" points="58.8 61.9 54.3 57.3 68.5 43.1 69.5 44.2 56.4 57.3 58.8 59.8 71.9 46.6 73 47.7 58.8 61.9"/><polygon class="cls-3" points="49.7 69.4 46.7 66.4 49.1 64 50.1 65.1 48.8 66.4 49.7 67.3 51 66 52.1 67 49.7 69.4"/><path class="cls-3" d="M73.1,48.3,67.8,43,81.4,29.4l5.3,5.3ZM69.9,43l3.2,3.2L84.6,34.7l-3.2-3.2Z"/><polygon class="cls-3" points="66.6 42.3 65.5 41.2 76.8 29.9 83.6 36.7 82.6 37.8 76.8 32 66.6 42.3"/><path class="cls-3" d="M52.2,68l-4.1-4.1,7.3-7.3,4.1,4.1Zm-2-4.1,2,2,5.2-5.2-2-2Z"/><polygon class="cls-3" points="51.3 41.8 49.8 38.3 51.2 37.7 51.8 39.3 57.3 33.7 58.4 34.8 51.3 41.8"/><polygon class="cls-3" points="51.3 50.1 49.8 46.6 51.2 46 51.8 47.5 57.3 42 58.4 43 51.3 50.1"/><path class="cls-3" d="M13.9,80.3h0a4.63,4.63,0,0,1,7.5-3.6.6.6,0,0,1,.3.6.79.79,0,0,1-.8.8.76.76,0,0,1-.5-.2,3.23,3.23,0,0,0-2.1-.8,3,3,0,0,0-2.9,3.1h0a3,3,0,0,0,2.9,3.1,3.29,3.29,0,0,0,2.2-.8.76.76,0,0,1,.5-.2.68.68,0,0,1,.7.7.86.86,0,0,1-.3.6,4.64,4.64,0,0,1-3.2,1.2A4.38,4.38,0,0,1,13.9,80.3Z"/><path class="cls-3" d="M22.9,81.4h0a3.48,3.48,0,0,1,3.5-3.5,3.4,3.4,0,0,1,3.5,3.4h0a3.5,3.5,0,0,1-3.6,3.5A3.44,3.44,0,0,1,22.9,81.4Zm5.6,0h0a2.06,2.06,0,0,0-2-2.2,2,2,0,0,0-2,2.1h0a2,2,0,0,0,2,2.1A1.94,1.94,0,0,0,28.5,81.4Z"/><path class="cls-3" d="M31.5,78.7a.8.8,0,0,1,1.6,0V79a2.27,2.27,0,0,1,2-1.1,2.16,2.16,0,0,1,2,1.2,2.61,2.61,0,0,1,2.2-1.2,2.21,2.21,0,0,1,2.3,2.5v3.5a.8.8,0,0,1-1.6,0V80.8c0-1.1-.5-1.6-1.3-1.6a1.43,1.43,0,0,0-1.4,1.6v3.1a.8.8,0,0,1-1.6,0V80.8c0-1-.5-1.6-1.3-1.6A1.43,1.43,0,0,0,33,80.8v3.1a.8.8,0,0,1-1.6,0V78.7h.1Z"/><path class="cls-3" d="M43.5,78.7a.8.8,0,0,1,1.6,0v.4a2.66,2.66,0,0,1,2.3-1.2,3.13,3.13,0,0,1,3.1,3.4h0a3.13,3.13,0,0,1-3.1,3.4,2.91,2.91,0,0,1-2.3-1.2v2.3a.8.8,0,0,1-1.6,0Zm5.3,2.6h0a2,2,0,0,0-1.9-2.1A2,2,0,0,0,45,81.3h0a1.91,1.91,0,1,0,3.8,0Z"/><path class="cls-3" d="M52,76.2a.8.8,0,0,1,1.6,0V84A.8.8,0,0,1,52,84Z"/><path class="cls-3" d="M55.5,76.2c0-.5.4-.7.9-.7a.81.81,0,0,1,.9.7v.1a.82.82,0,0,1-.9.8.9.9,0,0,1-.9-.9Zm.1,2.5a.8.8,0,1,1,1.6,0v5.2a.8.8,0,1,1-1.6,0Z"/><path class="cls-3" d="M58.6,82.7h0c0-1.5,1.1-2.2,2.7-2.2a4.84,4.84,0,0,1,1.8.3v-.2c0-.9-.6-1.4-1.6-1.4a3.34,3.34,0,0,0-1.5.3h-.2a.58.58,0,0,1-.6-.6.68.68,0,0,1,.4-.6,6.54,6.54,0,0,1,2.1-.4,3.39,3.39,0,0,1,2.2.7,2.72,2.72,0,0,1,.7,2v3.3a.68.68,0,0,1-.7.7.67.67,0,0,1-.7-.6v-.3a2.87,2.87,0,0,1-2.2,1A2,2,0,0,1,58.6,82.7Zm4.6-.5v-.5a3.34,3.34,0,0,0-1.5-.3c-1,0-1.6.4-1.6,1.1h0c0,.6.6,1,1.3,1A1.39,1.39,0,0,0,63.2,82.2Z"/><path class="cls-3" d="M66.5,78.7a.8.8,0,0,1,1.6,0V79a2.39,2.39,0,0,1,2.1-1.2,2.29,2.29,0,0,1,2.4,2.5v3.5a.8.8,0,1,1-1.6,0V80.7c0-1-.5-1.6-1.4-1.6a1.45,1.45,0,0,0-1.5,1.6v3.1a.8.8,0,1,1-1.6,0V78.7Z"/><path class="cls-3" d="M73.9,81.4h0a3.48,3.48,0,0,1,3.5-3.5,3.2,3.2,0,0,1,2.3.8.76.76,0,0,1,.2.5.68.68,0,0,1-.7.7.76.76,0,0,1-.5-.2,2.25,2.25,0,0,0-1.4-.6,2,2,0,0,0-1.9,2.1h0a2,2,0,0,0,2,2.1,2,2,0,0,0,1.5-.6.52.52,0,0,1,.4-.2.68.68,0,0,1,.7.7.76.76,0,0,1-.2.5,3.09,3.09,0,0,1-2.4.9A3.13,3.13,0,0,1,73.9,81.4Z"/><path class="cls-3" d="M84.3,84.8a3.31,3.31,0,0,1-3.4-3.4h0a3.3,3.3,0,0,1,3.2-3.5,3.17,3.17,0,0,1,3.2,3.3.68.68,0,0,1-.7.7H82.4a1.85,1.85,0,0,0,1.9,1.7,2.45,2.45,0,0,0,1.6-.6c.1-.1.2-.1.4-.1a.65.65,0,0,1,.6.6.76.76,0,0,1-.2.5A4.58,4.58,0,0,1,84.3,84.8Zm1.5-3.9a1.69,1.69,0,0,0-1.7-1.7,1.75,1.75,0,0,0-1.7,1.7Z"/><path class="cls-3" d="M98.6,84.5l-.9-.9A3.78,3.78,0,0,1,95,84.8a2.65,2.65,0,0,1-2.9-2.5h0A2.84,2.84,0,0,1,94,79.8a2.74,2.74,0,0,1-.7-1.8h0a2.3,2.3,0,0,1,2.5-2.2,2.11,2.11,0,0,1,2.3,2.1h0c0,1.2-.8,1.8-1.9,2.3l1.5,1.5a5.39,5.39,0,0,0,.7-1.3c.1-.1.3-.4.6-.4a.68.68,0,0,1,.7.7.37.37,0,0,1-.1.3,7.84,7.84,0,0,1-1,1.5l1,1a.55.55,0,0,1,.2.5.68.68,0,0,1-.7.7C98.9,84.8,98.8,84.7,98.6,84.5Zm-1.8-1.8-2-2q-1.2.6-1.2,1.5h0a1.38,1.38,0,0,0,1.5,1.3A2.29,2.29,0,0,0,96.8,82.7Zm-.1-4.8h0a.94.94,0,0,0-1-1A1,1,0,0,0,94.6,78h0a1.88,1.88,0,0,0,.7,1.3C96.3,79,96.7,78.6,96.7,77.9Z"/><path class="cls-3" d="M24.4,94.4h0A4.53,4.53,0,0,1,29,89.8a4.44,4.44,0,0,1,4.6,4.5h0A4.44,4.44,0,0,1,29,98.8,4.25,4.25,0,0,1,24.4,94.4Zm7.6,0h0a3.05,3.05,0,0,0-3-3.2,3,3,0,0,0-3,3.1h0a3,3,0,0,0,3,3.1A2.89,2.89,0,0,0,32,94.4Z"/><path class="cls-3" d="M35.3,92.9a.8.8,0,1,1,1.6,0v.4a2.66,2.66,0,0,1,2.3-1.2,3.13,3.13,0,0,1,3.1,3.4h0a3.13,3.13,0,0,1-3.1,3.4,2.91,2.91,0,0,1-2.3-1.2V100a.8.8,0,0,1-1.6,0V92.9Zm5.3,2.6h0a2,2,0,0,0-1.9-2.1,2,2,0,0,0-1.9,2.1h0a2,2,0,0,0,1.9,2.1A1.9,1.9,0,0,0,40.6,95.5Z"/><path class="cls-3" d="M46.8,99a3.31,3.31,0,0,1-3.4-3.4h0a3.3,3.3,0,0,1,3.2-3.5,3.17,3.17,0,0,1,3.2,3.3.68.68,0,0,1-.7.7H44.9a1.85,1.85,0,0,0,1.9,1.7,2.45,2.45,0,0,0,1.6-.6c.1-.1.2-.1.4-.1a.65.65,0,0,1,.6.6.76.76,0,0,1-.2.5A4.29,4.29,0,0,1,46.8,99Zm1.5-4a1.69,1.69,0,0,0-1.7-1.7A1.75,1.75,0,0,0,44.9,95Z"/><path class="cls-3" d="M51.3,92.9a.8.8,0,1,1,1.6,0v.7c.4-.8,1-1.5,1.7-1.5a.74.74,0,0,1,.8.8.67.67,0,0,1-.6.7c-1.1.2-1.8,1-1.8,2.6v2a.8.8,0,0,1-1.6,0l-.1-5.3Z"/><path class="cls-3" d="M55.8,96.9h0c0-1.5,1.1-2.2,2.7-2.2a4.84,4.84,0,0,1,1.8.3v-.2c0-.9-.6-1.4-1.6-1.4a3.34,3.34,0,0,0-1.5.3H57a.58.58,0,0,1-.6-.6.68.68,0,0,1,.4-.6,6.54,6.54,0,0,1,2.1-.4,3.39,3.39,0,0,1,2.2.7,2.72,2.72,0,0,1,.7,2v3.3a.68.68,0,0,1-.7.7.67.67,0,0,1-.7-.6v-.3a2.87,2.87,0,0,1-2.2,1C56.9,98.9,55.8,98.2,55.8,96.9Zm4.5-.5v-.5a3.34,3.34,0,0,0-1.5-.3c-1,0-1.6.4-1.6,1.1h0c0,.6.6,1,1.3,1C59.5,97.8,60.3,97.3,60.3,96.4Z"/><path class="cls-3" d="M63.8,97V93.5h-.3a.7.7,0,1,1,0-1.4h.3V91a.8.8,0,0,1,1.6,0v1.1h1.2a.7.7,0,0,1,0,1.4H65.4v3.3c0,.6.3.8.8.8h.4a.65.65,0,0,1,.6.6.68.68,0,0,1-.4.6,3,3,0,0,1-1,.2C64.6,98.9,63.8,98.4,63.8,97Z"/><path class="cls-3" d="M68.6,90.4c0-.5.4-.7.9-.7a.81.81,0,0,1,.9.7v.1a.82.82,0,0,1-.9.8.9.9,0,0,1-.9-.9Zm.2,2.5a.8.8,0,1,1,1.6,0v5.2a.8.8,0,1,1-1.6,0Z"/><path class="cls-3" d="M71.9,95.5h0A3.48,3.48,0,0,1,75.4,92a3.4,3.4,0,0,1,3.5,3.4h0a3.5,3.5,0,0,1-3.6,3.5A3.31,3.31,0,0,1,71.9,95.5Zm5.5,0h0a2.06,2.06,0,0,0-2-2.2,2,2,0,0,0-2,2.1h0a2,2,0,0,0,2,2.1A1.8,1.8,0,0,0,77.4,95.5Z"/><path class="cls-3" d="M80.5,92.9a.8.8,0,1,1,1.6,0v.3A2.39,2.39,0,0,1,84.2,92a2.29,2.29,0,0,1,2.4,2.5V98A.8.8,0,1,1,85,98V94.9c0-1-.5-1.6-1.4-1.6a1.45,1.45,0,0,0-1.5,1.6V98a.8.8,0,1,1-1.6,0V92.9Z"/><path class="cls-3" d="M88,98.1a.55.55,0,0,1-.3-.5.65.65,0,0,1,.6-.6.37.37,0,0,1,.3.1,3.53,3.53,0,0,0,1.9.6c.7,0,1-.3,1-.7h0c0-.5-.7-.7-1.5-.9-1-.3-2.1-.7-2.1-1.9h0c0-1.3,1-2,2.4-2a5.37,5.37,0,0,1,2.1.5.68.68,0,0,1,.4.6.58.58,0,0,1-.6.6.37.37,0,0,1-.3-.1,3.32,3.32,0,0,0-1.6-.5c-.6,0-.9.3-.9.7h0c0,.5.7.7,1.5.9,1,.3,2.1.7,2.1,1.9h0c0,1.4-1.1,2.1-2.5,2.1A4.12,4.12,0,0,1,88,98.1Z"/></svg>