<svg id="main" xmlns="http://www.w3.org/2000/svg" xmlns:xlink="http://www.w3.org/1999/xlink" width="117.5" height="131.1" viewBox="0 0 117.5 131.1"><defs><style>.cls-1{fill:#ff4338;}.cls-2{fill:url(#linear-gradient);}.cls-3{fill:#fff;}</style><linearGradient id="linear-gradient" x1="2.04" y1="-527.71" x2="115.46" y2="-593.19" gradientTransform="translate(0 626)" gradientUnits="userSpaceOnUse"><stop offset="0" stop-color="#eb2227" stop-opacity="0"/><stop offset="0.27" stop-color="#e42228" stop-opacity="0.27"/><stop offset="0.54" stop-color="#d5222a" stop-opacity="0.54"/><stop offset="0.82" stop-color="#be222c" stop-opacity="0.82"/><stop offset="1" stop-color="#ac212d"/></linearGradient></defs><title>Artboard 29</title><path class="cls-1" d="M58.7,131.1A15.12,15.12,0,0,1,51,129L7.7,104A15.49,15.49,0,0,1,0,90.6V40.5A15.7,15.7,0,0,1,7.7,27.1L51,2.1a15.35,15.35,0,0,1,15.5,0l43.3,25a15.49,15.49,0,0,1,7.7,13.4V90.6a15.7,15.7,0,0,1-7.7,13.4L66.5,129A16,16,0,0,1,58.7,131.1Z"/><path class="cls-2" d="M58.7,131.1A15.12,15.12,0,0,1,51,129L7.7,104A15.49,15.49,0,0,1,0,90.6V40.5A15.7,15.7,0,0,1,7.7,27.1L51,2.1a15.35,15.35,0,0,1,15.5,0l43.3,25a15.49,15.49,0,0,1,7.7,13.4V90.6a15.7,15.7,0,0,1-7.7,13.4L66.5,129A16,16,0,0,1,58.7,131.1Z"/><path class="cls-3" d="M80.2,61.3H78.8V34.9a.68.68,0,0,0-.7-.7H68.4V32.8h9.7a2.11,2.11,0,0,1,2.1,2.1Z"/><path class="cls-3" d="M38.5,61.3H37.1V34.9a2.11,2.11,0,0,1,2.1-2.1h9.3v1.4H39.2a.68.68,0,0,0-.7.7Z"/><polygon class="cls-3" points="76.8 58.5 40.5 58.5 40.5 36 46.6 36 46.6 37.5 41.9 37.5 41.9 57 75.4 57 75.4 37.5 70.7 37.5 70.7 36 76.8 36 76.8 58.5"/><path class="cls-3" d="M82.5,65.9H34.9c-1.6,0-3.5-1.4-3.7-1.5l-.3-.2V60.6H86.4v3.6l-.3.2C85.9,64.5,84,65.9,82.5,65.9ZM32.3,63.4a5.65,5.65,0,0,0,2.5,1.1H82.4a4.72,4.72,0,0,0,2.5-1.1V61.9H32.2v1.5Z"/><path class="cls-3" d="M64.3,47.7H52.9V47a5.08,5.08,0,0,0-.7-2.6,18.31,18.31,0,0,1-4.1-10.1,10.6,10.6,0,1,1,21.2,0,18.56,18.56,0,0,1-4.1,10.1,5.07,5.07,0,0,0-.7,2.6Zm-10-1.4h8.8a5.66,5.66,0,0,1,1-2.7,17.2,17.2,0,0,0,3.8-9.2,9.1,9.1,0,1,0-18.2,0,16.94,16.94,0,0,0,3.8,9.2A9.77,9.77,0,0,1,54.3,46.3Z"/><rect class="cls-3" x="55.11" y="36.1" width="1.4" height="10.9" transform="translate(-5.23 8.16) rotate(-7.99)"/><rect class="cls-3" x="55.94" y="40.96" width="10.9" height="1.4" transform="translate(11.62 96.68) rotate(-82.03)"/><polygon class="cls-3" points="56.3 38.7 54.7 37.3 55.6 36.2 56.3 36.8 57.5 35.8 58.6 36.8 59.8 35.8 61 36.8 61.7 36.2 62.6 37.3 61 38.7 59.8 37.7 58.6 38.7 57.5 37.7 56.3 38.7"/><rect class="cls-3" x="52.7" y="49.5" width="11.9" height="1.4"/><rect class="cls-3" x="54.9" y="52.7" width="7.4" height="1.4"/><rect class="cls-3" x="55" y="47.3" width="1.4" height="2.7"/><path class="cls-3" d="M25.8,77.3H23.7a.7.7,0,1,1,0-1.4h5.8a.7.7,0,1,1,0,1.4H27.4V84a.86.86,0,0,1-.8.8.79.79,0,0,1-.8-.8V77.3Z"/><path class="cls-3" d="M33.2,84.8a3.31,3.31,0,0,1-3.4-3.4h0A3.3,3.3,0,0,1,33,77.9a3.17,3.17,0,0,1,3.2,3.3.68.68,0,0,1-.7.7H31.3a1.85,1.85,0,0,0,1.9,1.7,2.45,2.45,0,0,0,1.6-.6c.1-.1.2-.1.4-.1a.65.65,0,0,1,.6.6.76.76,0,0,1-.2.5A4,4,0,0,1,33.2,84.8Zm1.5-3.9A1.69,1.69,0,0,0,33,79.2a1.75,1.75,0,0,0-1.7,1.7Z"/><path class="cls-3" d="M37.4,81.4h0a3.48,3.48,0,0,1,3.5-3.5,3.2,3.2,0,0,1,2.3.8.76.76,0,0,1,.2.5.68.68,0,0,1-.7.7.76.76,0,0,1-.5-.2,2.25,2.25,0,0,0-1.4-.6,2,2,0,0,0-1.9,2.1h0a2,2,0,0,0,2,2.1,2,2,0,0,0,1.5-.6.52.52,0,0,1,.4-.2.68.68,0,0,1,.7.7.76.76,0,0,1-.2.5,3.09,3.09,0,0,1-2.4.9A3.18,3.18,0,0,1,37.4,81.4Z"/><path class="cls-3" d="M45,76.2a.79.79,0,0,1,.8-.8.74.74,0,0,1,.8.8v2.9a2.39,2.39,0,0,1,2.1-1.2,2.29,2.29,0,0,1,2.4,2.5v3.5a.79.79,0,0,1-.8.8.74.74,0,0,1-.8-.8V80.8c0-1-.5-1.6-1.4-1.6a1.45,1.45,0,0,0-1.5,1.6v3.1a.8.8,0,0,1-1.6,0V76.2Z"/><path class="cls-3" d="M52.7,78.7a.79.79,0,0,1,.8-.8.74.74,0,0,1,.8.8V79a2.39,2.39,0,0,1,2.1-1.2,2.29,2.29,0,0,1,2.4,2.5v3.5a.79.79,0,0,1-.8.8.74.74,0,0,1-.8-.8V80.7c0-1-.5-1.6-1.4-1.6a1.45,1.45,0,0,0-1.5,1.6v3.1a.8.8,0,0,1-1.6,0V78.7Z"/><path class="cls-3" d="M60.2,81.4h0a3.48,3.48,0,0,1,3.5-3.5,3.4,3.4,0,0,1,3.5,3.4h0a3.5,3.5,0,0,1-3.6,3.5A3.44,3.44,0,0,1,60.2,81.4Zm5.5,0h0a2.06,2.06,0,0,0-2-2.2,2,2,0,0,0-2,2.1h0a2,2,0,0,0,2,2.1A1.89,1.89,0,0,0,65.7,81.4Z"/><path class="cls-3" d="M68.9,76.2a.79.79,0,0,1,.8-.8.74.74,0,0,1,.8.8V84a.8.8,0,0,1-1.6,0Z"/><path class="cls-3" d="M72,81.4h0a3.48,3.48,0,0,1,3.5-3.5A3.4,3.4,0,0,1,79,81.3h0a3.5,3.5,0,0,1-3.6,3.5A3.44,3.44,0,0,1,72,81.4Zm5.6,0h0a2.06,2.06,0,0,0-2-2.2,2,2,0,0,0-2,2.1h0a2,2,0,0,0,2,2.1A1.89,1.89,0,0,0,77.6,81.4Z"/><path class="cls-3" d="M81,86.1a.55.55,0,0,1-.4-.6.65.65,0,0,1,.6-.6.37.37,0,0,1,.3.1,4.55,4.55,0,0,0,2,.5,1.83,1.83,0,0,0,2.1-2V83a2.79,2.79,0,0,1-2.3,1.2,3,3,0,0,1-3-3.1h0a3,3,0,0,1,3-3.1,2.84,2.84,0,0,1,2.3,1.1v-.3a.8.8,0,0,1,1.6,0v4.6a3.74,3.74,0,0,1-.8,2.5,3.67,3.67,0,0,1-2.7.9A7.14,7.14,0,0,1,81,86.1ZM85.6,81h0a1.9,1.9,0,0,0-3.8,0h0a1.9,1.9,0,0,0,3.8,0Z"/><path class="cls-3" d="M89.2,86.5c-.2-.1-.5-.3-.5-.6a.58.58,0,0,1,.6-.6.37.37,0,0,1,.3.1.9.9,0,0,0,.5.1c.5,0,.7-.2.9-.7v-.1l-2.5-5.5a.6.6,0,0,1-.1-.4.71.71,0,0,1,.8-.7.66.66,0,0,1,.7.6l1.8,4.4,1.7-4.4a.75.75,0,0,1,.7-.6.68.68,0,0,1,.7.7.6.6,0,0,1-.1.4L92.3,85c-.6,1.4-1.2,1.9-2.2,1.9A3.55,3.55,0,0,0,89.2,86.5Z"/><path class="cls-3" d="M25.8,94.4h0a4.63,4.63,0,0,1,7.5-3.6.6.6,0,0,1,.3.6.79.79,0,0,1-.8.8.76.76,0,0,1-.5-.2,3.23,3.23,0,0,0-2.1-.8,3,3,0,0,0-2.9,3.1h0a3,3,0,0,0,2.9,3.1,3.29,3.29,0,0,0,2.2-.8.76.76,0,0,1,.5-.2.68.68,0,0,1,.7.7.86.86,0,0,1-.3.6,4.64,4.64,0,0,1-3.2,1.2A4.26,4.26,0,0,1,25.8,94.4Z"/><path class="cls-3" d="M34.8,95.5h0A3.48,3.48,0,0,1,38.3,92a3.4,3.4,0,0,1,3.5,3.4h0a3.5,3.5,0,0,1-3.6,3.5A3.31,3.31,0,0,1,34.8,95.5Zm5.6,0h0a2.06,2.06,0,0,0-2-2.2,2,2,0,0,0-2,2.1h0a2,2,0,0,0,2,2.1A1.84,1.84,0,0,0,40.4,95.5Z"/><path class="cls-3" d="M43.4,92.9a.79.79,0,0,1,.8-.8.74.74,0,0,1,.8.8v.3A2.39,2.39,0,0,1,47.1,92a2.29,2.29,0,0,1,2.4,2.5V98a.79.79,0,0,1-.8.8.74.74,0,0,1-.8-.8V94.9c0-1-.5-1.6-1.4-1.6A1.45,1.45,0,0,0,45,94.9V98a.8.8,0,1,1-1.6,0V92.9Z"/><path class="cls-3" d="M51,98.1a.55.55,0,0,1-.3-.5.65.65,0,0,1,.6-.6.37.37,0,0,1,.3.1,3.53,3.53,0,0,0,1.9.6c.7,0,1-.3,1-.7h0c0-.5-.7-.7-1.5-.9-1-.3-2.1-.7-2.1-1.9h0c0-1.3,1-2,2.4-2a5.37,5.37,0,0,1,2.1.5.68.68,0,0,1,.4.6.58.58,0,0,1-.6.6.37.37,0,0,1-.3-.1,3.32,3.32,0,0,0-1.6-.5c-.6,0-.9.3-.9.7h0c0,.5.7.7,1.5.9,1,.3,2.1.7,2.1,1.9h0c0,1.4-1.1,2.1-2.5,2.1A3.93,3.93,0,0,1,51,98.1Z"/><path class="cls-3" d="M63.4,98.1a.8.8,0,0,1-1.6,0v-.3A2.39,2.39,0,0,1,59.7,99a2.29,2.29,0,0,1-2.4-2.5V93a.8.8,0,0,1,1.6,0v3.1c0,1,.5,1.6,1.4,1.6a1.45,1.45,0,0,0,1.5-1.6V93a.8.8,0,0,1,1.6,0v5.1Z"/><path class="cls-3" d="M65.4,90.3a.79.79,0,0,1,.8-.8.74.74,0,0,1,.8.8v7.8a.8.8,0,0,1-1.6,0Z"/><path class="cls-3" d="M69.2,97V93.5h-.3a.7.7,0,0,1,0-1.4h.3V91a.8.8,0,0,1,1.6,0v1.1H72a.7.7,0,0,1,0,1.4H70.8v3.3c0,.6.3.8.8.8H72a.65.65,0,0,1,.6.6.68.68,0,0,1-.4.6,3,3,0,0,1-1,.2C70,98.9,69.2,98.4,69.2,97Z"/><path class="cls-3" d="M74,90.4c0-.5.4-.7.9-.7a.81.81,0,0,1,.9.7v.1a.82.82,0,0,1-.9.8c-.5-.1-.9-.4-.9-.9Zm.1,2.5a.79.79,0,0,1,.8-.8.74.74,0,0,1,.8.8v5.2a.8.8,0,0,1-1.6,0Z"/><path class="cls-3" d="M77.7,92.9a.79.79,0,0,1,.8-.8.74.74,0,0,1,.8.8v.3A2.39,2.39,0,0,1,81.4,92a2.29,2.29,0,0,1,2.4,2.5V98a.79.79,0,0,1-.8.8.74.74,0,0,1-.8-.8V94.9c0-1-.5-1.6-1.4-1.6a1.45,1.45,0,0,0-1.5,1.6V98a.8.8,0,0,1-1.6,0V92.9Z"/><path class="cls-3" d="M85.8,100.2a.55.55,0,0,1-.4-.6A.65.65,0,0,1,86,99a.37.37,0,0,1,.3.1,4.55,4.55,0,0,0,2,.5,1.83,1.83,0,0,0,2.1-2v-.5a2.79,2.79,0,0,1-2.3,1.2,3,3,0,0,1-3-3.1h0a3,3,0,0,1,3-3.1,2.84,2.84,0,0,1,2.3,1.1v-.3a.8.8,0,0,1,1.6,0v4.6a3.74,3.74,0,0,1-.8,2.5,3.67,3.67,0,0,1-2.7.9A7.67,7.67,0,0,1,85.8,100.2Zm4.7-5h0a1.9,1.9,0,0,0-3.8,0h0A1.76,1.76,0,0,0,88.6,97,1.88,1.88,0,0,0,90.5,95.2Z"/></svg>