<svg id="main" xmlns="http://www.w3.org/2000/svg" xmlns:xlink="http://www.w3.org/1999/xlink" width="117.5" height="131.1" viewBox="0 0 117.5 131.1"><defs><style>.cls-1{fill:#0071ce;}.cls-2{fill:url(#linear-gradient);}.cls-3{fill:#fff;}</style><linearGradient id="linear-gradient" x1="2.04" y1="-527.71" x2="115.46" y2="-593.19" gradientTransform="translate(0 626)" gradientUnits="userSpaceOnUse"><stop offset="0" stop-color="#183c66" stop-opacity="0"/><stop offset="0.49" stop-color="#1a3b68" stop-opacity="0.49"/><stop offset="0.99" stop-color="#20386d" stop-opacity="0.99"/><stop offset="1" stop-color="#20386d"/></linearGradient></defs><title>Artboard 25</title><path class="cls-1" d="M58.7,131.1A15.12,15.12,0,0,1,51,129L7.7,104A15.49,15.49,0,0,1,0,90.6V40.5A15.7,15.7,0,0,1,7.7,27.1L51,2.1a15.35,15.35,0,0,1,15.5,0l43.3,25a15.49,15.49,0,0,1,7.7,13.4V90.6a15.7,15.7,0,0,1-7.7,13.4L66.5,129A15.48,15.48,0,0,1,58.7,131.1Z"/><path class="cls-2" d="M58.7,131.1A15.12,15.12,0,0,1,51,129L7.7,104A15.49,15.49,0,0,1,0,90.6V40.5A15.7,15.7,0,0,1,7.7,27.1L51,2.1a15.35,15.35,0,0,1,15.5,0l43.3,25a15.49,15.49,0,0,1,7.7,13.4V90.6a15.7,15.7,0,0,1-7.7,13.4L66.5,129A15.48,15.48,0,0,1,58.7,131.1Z"/><path class="cls-3" d="M76.9,37.5H75.5V35.8l-4.1-.3-.1-.5a12.09,12.09,0,0,0-1.6-4.1l-.3-.4,2.7-3.2-2.4-2.4-3.2,2.7-.5-.3a14.44,14.44,0,0,0-4-1.8l-.5-.1-.4-4.2H57.7l-.3,4.1-.5.1A12.09,12.09,0,0,0,52.8,27l-.4.3-3.2-2.7L46.8,27l2.7,3.2-.3.5a14.44,14.44,0,0,0-1.8,4l-.1.5-4.2.4v1.7H41.7v-3l4.5-.4a15.4,15.4,0,0,1,1.5-3.5l-2.8-3.3,4.3-4.3,3.5,2.9a14.19,14.19,0,0,1,3.6-1.4l.4-4.4h6.1l.4,4.5a15.4,15.4,0,0,1,3.5,1.5L70,23.1l4.3,4.3-2.9,3.5a14.19,14.19,0,0,1,1.4,3.6l4.4.4v2.6h-.3Z"/><path class="cls-3" d="M65.2,37.3H63.8a4.6,4.6,0,0,0-9.2,0H53.2a6,6,0,0,1,12,0Z"/><rect class="cls-3" x="40.8" y="44" width="36.5" height="1.4"/><rect class="cls-3" x="36.5" y="44" width="2.2" height="1.4"/><rect class="cls-3" x="79.7" y="44" width="2.2" height="1.4"/><rect class="cls-3" x="44.7" y="42.1" width="1.4" height="5.3"/><rect class="cls-3" x="40.8" y="52.5" width="36.5" height="1.4"/><rect class="cls-3" x="36.5" y="52.5" width="2.2" height="1.4"/><rect class="cls-3" x="79.7" y="52.5" width="2.2" height="1.4"/><rect class="cls-3" x="69.8" y="50.6" width="1.4" height="5.3"/><rect class="cls-3" x="40.8" y="61" width="36.5" height="1.4"/><rect class="cls-3" x="36.5" y="61" width="2.2" height="1.4"/><rect class="cls-3" x="79.7" y="61" width="2.2" height="1.4"/><rect class="cls-3" x="55.2" y="59.1" width="1.4" height="5.3"/><path class="cls-3" d="M32.9,75.5a.79.79,0,0,1,.8-.8h3.2a3.2,3.2,0,0,1,2.3.8,2,2,0,0,1,.6,1.5h0a2.13,2.13,0,0,1-1.3,2c1,.4,1.7.9,1.7,2.1h0c0,1.6-1.3,2.4-3.3,2.4H33.6a.79.79,0,0,1-.8-.8V75.5Zm3.7,3c1,0,1.7-.4,1.7-1.2h0c0-.7-.6-1.1-1.5-1.1H34.6v2.3h2Zm.4,3.7c1.1,0,1.7-.4,1.7-1.2h0c0-.7-.6-1.2-1.8-1.2H34.5v2.4H37Z"/><path class="cls-3" d="M47.7,82.9a.8.8,0,0,1-1.6,0v-.3A2.39,2.39,0,0,1,44,83.8a2.29,2.29,0,0,1-2.4-2.5V77.8a.8.8,0,0,1,1.6,0v3.1c0,1,.5,1.6,1.4,1.6a1.45,1.45,0,0,0,1.5-1.6V77.8a.8.8,0,0,1,1.6,0v5.1Z"/><path class="cls-3" d="M49.3,82.9a.55.55,0,0,1-.3-.5.65.65,0,0,1,.6-.6.37.37,0,0,1,.3.1,3.53,3.53,0,0,0,1.9.6c.7,0,1-.3,1-.7h0c0-.5-.7-.7-1.5-.9-1-.3-2.1-.7-2.1-1.9h0c0-1.3,1-2,2.4-2a5.37,5.37,0,0,1,2.1.5.68.68,0,0,1,.4.6.58.58,0,0,1-.6.6.37.37,0,0,1-.3-.1,3.32,3.32,0,0,0-1.6-.5c-.6,0-.9.3-.9.7h0c0,.5.7.7,1.5.9,1,.3,2.1.7,2.1,1.9h0c0,1.4-1.1,2.1-2.5,2.1A4.9,4.9,0,0,1,49.3,82.9Z"/><path class="cls-3" d="M55.9,75.1c0-.5.4-.7.9-.7a.81.81,0,0,1,.9.7v.1a.82.82,0,0,1-.9.8.8.8,0,0,1-.9-.9Zm.1,2.5a.79.79,0,0,1,.8-.8.74.74,0,0,1,.8.8v5.2a.8.8,0,0,1-1.6,0Z"/><path class="cls-3" d="M59.5,77.6a.79.79,0,0,1,.8-.8.74.74,0,0,1,.8.8v.3a2.39,2.39,0,0,1,2.1-1.2,2.29,2.29,0,0,1,2.4,2.5v3.5a.79.79,0,0,1-.8.8.74.74,0,0,1-.8-.8V79.6c0-1-.5-1.6-1.4-1.6a1.45,1.45,0,0,0-1.5,1.6v3.1a.8.8,0,0,1-1.6,0V77.6Z"/><path class="cls-3" d="M70.3,83.7a3.31,3.31,0,0,1-3.4-3.4h0a3.3,3.3,0,0,1,3.2-3.5,3.17,3.17,0,0,1,3.2,3.3.68.68,0,0,1-.7.7H68.4a1.85,1.85,0,0,0,1.9,1.7,2.45,2.45,0,0,0,1.6-.6c.1-.1.2-.1.4-.1a.65.65,0,0,1,.6.6.76.76,0,0,1-.2.5A3.65,3.65,0,0,1,70.3,83.7Zm1.5-3.9a1.69,1.69,0,0,0-1.7-1.7,1.75,1.75,0,0,0-1.7,1.7Z"/><path class="cls-3" d="M74.6,82.9a.55.55,0,0,1-.3-.5.65.65,0,0,1,.6-.6.37.37,0,0,1,.3.1,3.53,3.53,0,0,0,1.9.6c.7,0,1-.3,1-.7h0c0-.5-.7-.7-1.5-.9-1-.3-2.1-.7-2.1-1.9h0c0-1.3,1-2,2.4-2a5.37,5.37,0,0,1,2.1.5.68.68,0,0,1,.4.6.58.58,0,0,1-.6.6.37.37,0,0,1-.3-.1,3.32,3.32,0,0,0-1.6-.5c-.6,0-.9.3-.9.7h0c0,.5.7.7,1.5.9,1,.3,2.1.7,2.1,1.9h0c0,1.4-1.1,2.1-2.5,2.1A4.9,4.9,0,0,1,74.6,82.9Z"/><path class="cls-3" d="M80.8,82.9a.55.55,0,0,1-.3-.5.65.65,0,0,1,.6-.6.37.37,0,0,1,.3.1,3.53,3.53,0,0,0,1.9.6c.7,0,1-.3,1-.7h0c0-.5-.7-.7-1.5-.9-1-.3-2.1-.7-2.1-1.9h0c0-1.3,1-2,2.4-2a5.37,5.37,0,0,1,2.1.5.68.68,0,0,1,.4.6.58.58,0,0,1-.6.6.37.37,0,0,1-.3-.1,3.32,3.32,0,0,0-1.6-.5c-.6,0-.9.3-.9.7h0c0,.5.7.7,1.5.9,1,.3,2.1.7,2.1,1.9h0c0,1.4-1.1,2.1-2.5,2.1A4.63,4.63,0,0,1,80.8,82.9Z"/><path class="cls-3" d="M28.2,91.3H26.1a.7.7,0,0,1,0-1.4h5.8a.7.7,0,0,1,0,1.4H29.8V98a.86.86,0,0,1-.8.8.79.79,0,0,1-.8-.8V91.3Z"/><path class="cls-3" d="M33.1,92.7a.79.79,0,0,1,.8-.8.74.74,0,0,1,.8.8v.7c.4-.8,1-1.5,1.7-1.5a.74.74,0,0,1,.8.8.67.67,0,0,1-.6.7c-1.1.2-1.8,1-1.8,2.6v2a.8.8,0,0,1-1.6,0V92.7h-.1Z"/><path class="cls-3" d="M37.6,96.7h0c0-1.5,1.1-2.2,2.7-2.2a4.84,4.84,0,0,1,1.8.3v-.2c0-.9-.6-1.4-1.6-1.4a3.34,3.34,0,0,0-1.5.3h-.2a.58.58,0,0,1-.6-.6.68.68,0,0,1,.4-.6,6.54,6.54,0,0,1,2.1-.4,3.39,3.39,0,0,1,2.2.7,2.72,2.72,0,0,1,.7,2v3.3a.68.68,0,0,1-.7.7.67.67,0,0,1-.7-.6v-.3a2.87,2.87,0,0,1-2.2,1A2.06,2.06,0,0,1,37.6,96.7Zm4.5-.5v-.5a3.34,3.34,0,0,0-1.5-.3c-1,0-1.6.4-1.6,1.1h0c0,.6.6,1,1.3,1C41.4,97.7,42.1,97.1,42.1,96.2Z"/><path class="cls-3" d="M45.4,92.7a.79.79,0,0,1,.8-.8.74.74,0,0,1,.8.8V93a2.39,2.39,0,0,1,2.1-1.2,2.29,2.29,0,0,1,2.4,2.5v3.5a.79.79,0,0,1-.8.8.74.74,0,0,1-.8-.8V94.7c0-1-.5-1.6-1.4-1.6A1.45,1.45,0,0,0,47,94.7v3.1a.8.8,0,1,1-1.6,0V92.7Z"/><path class="cls-3" d="M52.9,98a.55.55,0,0,1-.3-.5.65.65,0,0,1,.6-.6.37.37,0,0,1,.3.1,3.53,3.53,0,0,0,1.9.6c.7,0,1-.3,1-.7h0c0-.5-.7-.7-1.5-.9-1-.3-2.1-.7-2.1-1.9h0c0-1.3,1-2,2.4-2a5.37,5.37,0,0,1,2.1.5.68.68,0,0,1,.4.6.58.58,0,0,1-.6.6.37.37,0,0,1-.3-.1,3.32,3.32,0,0,0-1.6-.5c-.6,0-.9.3-.9.7h0c0,.5.7.7,1.5.9,1,.3,2.1.7,2.1,1.9h0c0,1.4-1.1,2.1-2.5,2.1A6.09,6.09,0,0,1,52.9,98Z"/><path class="cls-3" d="M59.4,90.2c0-.5.4-.7.9-.7a.81.81,0,0,1,.9.7v.1a.82.82,0,0,1-.9.8c-.5-.1-.9-.4-.9-.9Zm.2,2.5a.79.79,0,0,1,.8-.8.74.74,0,0,1,.8.8v5.2a.8.8,0,0,1-1.6,0Z"/><path class="cls-3" d="M63.4,96.8V93.3h-.3a.7.7,0,1,1,0-1.4h.3V90.8a.8.8,0,1,1,1.6,0v1.1h1.2a.7.7,0,0,1,0,1.4H65v3.3c0,.6.3.8.8.8h.4a.65.65,0,0,1,.6.6.68.68,0,0,1-.4.6,3,3,0,0,1-1,.2C64.2,98.7,63.4,98.2,63.4,96.8Z"/><path class="cls-3" d="M68.2,90.2c0-.5.4-.7.9-.7a.81.81,0,0,1,.9.7v.1a.82.82,0,0,1-.9.8c-.5-.1-.9-.4-.9-.9Zm.1,2.5a.79.79,0,0,1,.8-.8.74.74,0,0,1,.8.8v5.2a.8.8,0,0,1-1.6,0Z"/><path class="cls-3" d="M71.5,95.3h0A3.48,3.48,0,0,1,75,91.8a3.4,3.4,0,0,1,3.5,3.4h0a3.5,3.5,0,0,1-3.6,3.5A3.26,3.26,0,0,1,71.5,95.3Zm5.5,0h0a2.06,2.06,0,0,0-2-2.2,2,2,0,0,0-2,2.1h0a2,2,0,0,0,2,2.1A1.84,1.84,0,0,0,77,95.3Z"/><path class="cls-3" d="M80.1,92.7a.79.79,0,0,1,.8-.8.74.74,0,0,1,.8.8V93a2.39,2.39,0,0,1,2.1-1.2,2.29,2.29,0,0,1,2.4,2.5v3.5a.79.79,0,0,1-.8.8.74.74,0,0,1-.8-.8V94.7c0-1-.5-1.6-1.4-1.6a1.45,1.45,0,0,0-1.5,1.6v3.1a.8.8,0,1,1-1.6,0V92.7Z"/><path class="cls-3" d="M87.6,98a.55.55,0,0,1-.3-.5.65.65,0,0,1,.6-.6.37.37,0,0,1,.3.1,3.53,3.53,0,0,0,1.9.6c.7,0,1-.3,1-.7h0c0-.5-.7-.7-1.5-.9-1-.3-2.1-.7-2.1-1.9h0c0-1.3,1-2,2.4-2a5.37,5.37,0,0,1,2.1.5.68.68,0,0,1,.4.6.58.58,0,0,1-.6.6.37.37,0,0,1-.3-.1,3.32,3.32,0,0,0-1.6-.5c-.6,0-.9.3-.9.7h0c0,.5.7.7,1.5.9,1,.3,2.1.7,2.1,1.9h0c0,1.4-1.1,2.1-2.5,2.1A6.09,6.09,0,0,1,87.6,98Z"/></svg>